<?xml version="1.0" standalone="no"?><!DOCTYPE svg PUBLIC "-//W3C//DTD SVG 1.1//EN" "http://www.w3.org/Graphics/SVG/1.1/DTD/svg11.dtd"><svg t="1677679478322" class="icon" viewBox="0 0 1024 1024" version="1.1" xmlns="http://www.w3.org/2000/svg" p-id="36642" xmlns:xlink="http://www.w3.org/1999/xlink" width="200" height="200"><path d="M920.917762 103.569844c-51.342342-51.322899-134.511553-51.322899-185.79659-0.019443l-8.442276 8.422833c78.881558 42.09984 143.79294 106.763582 186.101535 185.473225l8.137331-8.118911C972.203822 238.062977 972.203822 154.874323 920.917762 103.569844z" p-id="36643" fill="#ab575c"></path><path d="M298.215474 113.441679l-9.871835-9.891278c-51.30448-51.30448-134.493134-51.30448-185.78738 0.019443-51.30448 51.30448-51.30448 134.493134 0 185.758728l11.120268 11.129478C155.432537 221.406622 219.705376 156.112524 298.215474 113.441679z" p-id="36644" fill="#ab575c"></path><path d="M513.95298 115.938546c-218.386846 0-395.436214 177.068811-395.436214 395.454634 0 105.370863 41.213657 201.104227 108.394732 271.978415l-24.778336 178.373527 146.657174-90.968851c50.261731 23.134907 106.203834 36.043914 165.16162 36.043914 59.042721 0 115.056456-12.94073 165.369352-36.131919l146.820903 91.056855-24.830525-178.696892c66.994834-70.842465 108.075461-166.443823 108.075461-271.65505C909.388171 293.007357 732.376665 115.938546 513.95298 115.938546zM704.284863 572.570517 448.735629 572.570517l0-0.419556-0.019443 0L448.716186 316.582285l61.194734 0 0 194.773032 194.372919 0L704.28384 572.570517z" p-id="36645" fill="#ab575c"></path></svg>