<?xml version="1.0" standalone="no"?><!DOCTYPE svg PUBLIC "-//W3C//DTD SVG 1.1//EN" "http://www.w3.org/Graphics/SVG/1.1/DTD/svg11.dtd"><svg t="1677679347036" class="icon" viewBox="0 0 1024 1024" version="1.1" xmlns="http://www.w3.org/2000/svg" p-id="31528" xmlns:xlink="http://www.w3.org/1999/xlink" width="200" height="200"><path d="M1024 512c0-282.763636-229.236364-512-512-512C229.236364 0 0 229.236364 0 512c0 282.763636 229.236364 512 512 512C794.763636 1024 1024 794.763636 1024 512zM186.181818 512 162.909091 512 139.636364 512c0-205.637818 166.725818-372.363636 372.363636-372.363636 205.637818 0 372.363636 166.725818 372.363636 372.363636l-23.272727 0L837.818182 512c0-179.944727-145.873455-325.818182-325.818182-325.818182C332.055273 186.181818 186.181818 332.055273 186.181818 512zM617.844364 290.722909l-17.454545 358.865455-65.954909 114.176-22.946909-129.861818L617.844364 290.722909z" p-id="31529" fill="#ab575c"></path></svg>