<?xml version="1.0" standalone="no"?><!DOCTYPE svg PUBLIC "-//W3C//DTD SVG 1.1//EN" "http://www.w3.org/Graphics/SVG/1.1/DTD/svg11.dtd"><svg t="1677850431876" class="icon" viewBox="0 0 1024 1024" version="1.1" xmlns="http://www.w3.org/2000/svg" p-id="10781" xmlns:xlink="http://www.w3.org/1999/xlink" width="200" height="200"><path d="M920.112 640.269l-254.565 36.176c-7.857 1.038-14.678 5.931-18.236 12.9L575.256 832.12l-20.46-48.481c-2.965-7.117-36.176 72.055-43.886 70.424L402.382 740.939l-26.094-51.595c-3.558-6.969-10.379-11.862-18.236-12.9l-72.055-10.23L470.879 512.32a23.681 23.681 0 0 0 8.451-20.46l-26.835-250.414c-0.741-6.375 1.186-12.009 4.596-16.309l43.441 22.239c7.117 3.707 15.42 3.707 22.536 0l70.276-36.027 115.2-8.451c6.819 4.003 15.27 152.859 22.535 149.745l21.795-9.489-10.527 60.194c-1.334 7.561 1.335 15.42 6.969 20.905l184.289 175.69c14.231 13.639 6.374 37.509-13.493 40.326z" fill="#E27E47" p-id="10782"></path><path d="M510.91 468.582c24.526 0 44.479 19.953 44.479 44.479s-19.953 44.479-44.479 44.479-44.479-19.953-44.479-44.479 19.953-44.479 44.479-44.479m0-44.479c-49.13 0-88.957 39.828-88.957 88.957 0 49.13 39.827 88.957 88.957 88.957 49.129 0 88.957-39.827 88.957-88.957 0-49.129-39.828-88.957-88.957-88.957z" fill="#0F3944" p-id="10783"></path><path d="M288.804 188.635l148.017 76.092 43.165 22.097c9.81 5.109 20.81 7.809 31.813 7.809 11.004 0 22.005-2.701 31.559-7.678l70.322-36.051 121.11-62.266-25.73 146.851-10.516 60.13c-3.892 22.058 3.489 44.675 20.08 60.826l152.934 145.798-211.837 30.106c-22.327 2.95-41.775 16.695-52.119 36.955l-72.058 142.782-23.741 47.062-69.73-138.283-26.171-51.747c-10.25-20.074-29.698-33.82-51.598-36.711l-72.047-10.229-140.112-19.918 152.75-145.74c16.576-15.725 24.112-38.492 20.169-60.846l-36.26-207.039m473.224-61.033c-3.713 0-7.541 0.872-11.231 2.795l-157.454 80.95-70.276 36.027a24.356 24.356 0 0 1-11.268 2.78c-3.855 0-7.71-0.927-11.268-2.78l-43.441-22.239-184.289-94.739c-3.692-1.923-7.517-2.795-11.231-2.795-14.038 0-26.456 12.462-23.759 27.703l43.441 248.042c1.334 7.561-1.186 15.42-6.969 20.905L90.143 599.942c-14.381 13.64-6.524 37.511 13.344 40.327l182.51 25.946 72.055 10.23c7.857 1.038 14.678 5.931 18.236 12.9l26.094 51.595 87.771 174.059c4.448 8.822 13.085 13.232 21.702 13.232 8.618 0 17.217-4.411 21.591-13.232l41.81-82.879 72.055-142.775c3.558-6.969 10.379-11.862 18.236-12.9l254.565-36.176c19.867-2.816 27.725-26.687 13.492-40.327l-184.289-175.69c-5.634-5.486-8.303-13.344-6.969-20.905l10.527-60.194 32.914-187.847c2.697-15.244-9.72-27.704-23.759-27.704z" fill="#0F3944" p-id="10784"></path><path d="M249.224 188.799l48.94-33.487L490.91 437.007l-48.94 33.486zM530.561 452.416l192.744-296.543 49.723 32.318-192.744 296.543zM571.25 564.296l12.715-57.927 303.923 66.716-12.716 57.926zM481.26 572.369h59.305v311.35H481.26zM133.41 573.177l311.347-74.157 13.743 57.698-311.348 74.156z" fill="#0F3944" p-id="10785"></path></svg>