<?xml version="1.0" standalone="no"?><!DOCTYPE svg PUBLIC "-//W3C//DTD SVG 1.1//EN" "http://www.w3.org/Graphics/SVG/1.1/DTD/svg11.dtd"><svg t="1677678489095" class="icon" viewBox="0 0 1024 1024" version="1.1" xmlns="http://www.w3.org/2000/svg" p-id="20588" xmlns:xlink="http://www.w3.org/1999/xlink" width="200" height="200"><path d="M601.289094 492.130464 601.289094 288.687982c0-49.378617-39.957037-89.421612-89.289606-89.421612-49.334615 0-89.289606 40.042995-89.289606 89.421612l0 203.442482c-53.216016 30.883381-89.421612 87.892793-89.421612 153.8459 0 98.713232 79.997985 178.711218 178.711218 178.711218 98.711186 0 178.709171-79.997985 178.709171-178.711218C690.70866 580.023256 654.50511 523.012821 601.289094 492.130464zM556.620755 377.977587c-71.099315-0.479931-19.97596 0-44.621267 0s22.376637 1.00284-44.623313 0L467.376175 288.687982c0-24.733311 19.978007-44.753273 44.623313-44.753273s44.621267 20.019962 44.621267 44.753273L556.620755 377.977587zM779.997242 65.355497 243.998665 65.355497c-98.711186 0-178.709171 79.953983-178.709171 178.579211l0 535.9996c0 98.711186 79.997985 178.709171 178.709171 178.709171l535.998577 0c98.711186 0 178.711218-79.997985 178.711218-178.709171L958.70846 243.934708C958.70846 145.30948 878.708428 65.355497 779.997242 65.355497zM869.286848 735.26597c0 74.023924-59.932997 134.086881-133.954875 134.086881L288.623002 869.352851c-73.979922 0-133.912919-60.062957-133.912919-134.086881L154.710083 288.687982c0-74.067926 59.932997-134.042879 133.912919-134.042879l446.708971 0c74.021877 0 133.954875 59.974953 133.954875 134.042879L869.286848 735.26597z" p-id="20589" fill="#ab575c"></path></svg>