<?xml version="1.0" standalone="no"?><!DOCTYPE svg PUBLIC "-//W3C//DTD SVG 1.1//EN" "http://www.w3.org/Graphics/SVG/1.1/DTD/svg11.dtd"><svg t="1677679281743" class="icon" viewBox="0 0 1024 1024" version="1.1" xmlns="http://www.w3.org/2000/svg" p-id="29663" xmlns:xlink="http://www.w3.org/1999/xlink" width="200" height="200"><path d="M601.6 114.133c17.824 17.325 27.733 41.21 27.733 66.134v665.6c0 51.848-42.05 93.866-93.866 93.866-24.985 0-48.889-9.9-66.134-27.733L298.73 741.396a51.2 51.2 0 0 0-36.204-14.996h-66.26c-75.367 0.315-136.533-60.803-136.533-136.533v-153.6c0-75.028 61.166-136.145 136.534-136.534h65.278a51.2 51.2 0 0 0 36.1-14.892l171.688-170.708c36.29-36.88 95.76-36.91 132.267 0z m233.763 141.855c73.042 64.345 116.104 160.243 116.104 263.478 0 103.236-43.062 199.135-116.104 263.48-14.146 12.46-35.714 11.096-48.176-3.05-12.46-14.146-11.095-35.715 3.05-48.175 58.289-51.349 92.963-128.569 92.963-212.254s-34.674-160.907-92.962-212.254c-14.146-12.461-15.512-34.03-3.05-48.175 12.461-14.146 34.03-15.512 48.175-3.05z m-101.875 99.616c43.97 40.18 69.712 99.323 69.712 162.767 0 63.48-25.772 122.654-69.787 162.836-13.922 12.71-35.511 11.727-48.222-2.195-12.582-13.783-11.745-35.08 1.782-47.838l0.414-0.384 0.89-0.819c29.224-27.166 46.656-67.632 46.656-111.599 0-44.387-17.766-85.205-47.498-112.375-13.915-12.717-14.887-34.307-2.17-48.223 12.717-13.916 34.307-14.888 48.223-2.17z" fill="#ab575c" p-id="29664"></path></svg>